# xmcd
#
# Track frame offsets: 
#        150
#        8899
#        14002
#
# Disc length: 351 seconds
#
# Revision: 0
# Processed by: cddbd v1.5.1PL0 Copyright (c) Steve Scherf et al.
# Submitted via: ExactAudioCopy v0.95a5
#
DISCID=1b015d03
DTITLE=Jesus Chords - 7" Demo
DYEAR=2003
DGENRE=Country
TTITLE0=Hollow Head
TTITLE1=I Hear Ya Callin'
TTITLE2=On The Run
EXTD=
EXTT0=
EXTT1=
EXTT2=
PLAYORDER=
